<svg width="186" height="56" viewBox="0 0 186 56" fill="none" xmlns="http://www.w3.org/2000/svg">
<path d="M34.1895 44H27.9053V21.5C27.9053 21.0605 27.8174 20.6504 27.6416 20.2695C27.4805 19.8887 27.2534 19.5591 26.9604 19.2808C26.6821 18.9878 26.3525 18.7607 25.9717 18.5996C25.5908 18.4385 25.1807 18.3579 24.7412 18.3579C24.3018 18.3579 23.8916 18.4385 23.5107 18.5996C23.1299 18.7607 22.793 18.9878 22.5 19.2808C22.2217 19.5591 22.002 19.8887 21.8408 20.2695C21.6797 20.6504 21.5991 21.0605 21.5991 21.5V44H15.293V21.5C15.293 21.0605 15.2124 20.6504 15.0513 20.2695C14.8901 19.8887 14.6631 19.5591 14.3701 19.2808C14.0918 18.9878 13.7622 18.7607 13.3813 18.5996C13.0005 18.4385 12.5903 18.3579 12.1509 18.3579C11.7114 18.3579 11.3013 18.4385 10.9204 18.5996C10.5396 18.7607 10.2026 18.9878 9.90967 19.2808C9.63135 19.5591 9.41162 19.8887 9.25049 20.2695C9.08936 20.6504 9.00879 21.0605 9.00879 21.5V44H2.70264V21.5C2.70264 20.1963 2.94434 18.9731 3.42773 17.8306C3.92578 16.6733 4.59961 15.6699 5.44922 14.8203C6.31348 13.9561 7.31689 13.2822 8.45947 12.7988C9.6167 12.3008 10.8472 12.0518 12.1509 12.0518C13.3228 12.0518 14.4507 12.2642 15.5347 12.689C16.6187 13.0991 17.5928 13.6997 18.457 14.4907C19.3213 13.6997 20.2881 13.0991 21.3574 12.689C22.4414 12.2642 23.5693 12.0518 24.7412 12.0518C26.0449 12.0518 27.2681 12.3008 28.4106 12.7988C29.5679 13.2822 30.5713 13.9561 31.4209 14.8203C32.2852 15.6699 32.959 16.6733 33.4424 17.8306C33.9404 18.9731 34.1895 20.1963 34.1895 21.5V44ZM44.6045 52.9648V46.9224L47.9443 46.9663C48.5303 46.9663 49.0942 46.8711 49.6362 46.6807C50.1782 46.4902 50.6763 46.2266 51.1304 45.8896C51.5991 45.5527 52.0093 45.1499 52.3608 44.6812C52.7124 44.2271 52.998 43.729 53.2178 43.187C52.5586 43.4653 51.8848 43.7437 51.1963 44.022C50.5225 44.3003 49.8413 44.4395 49.1528 44.4395C47.7026 44.4395 46.3403 44.1831 45.0659 43.6704C43.7915 43.1577 42.6709 42.4326 41.7041 41.4951C40.752 40.543 39.9976 39.3931 39.4409 38.0454C38.8989 36.6831 38.6279 35.1597 38.6279 33.4751V20.4673H44.6045V33.4751C44.6045 34.3101 44.7217 35.0425 44.9561 35.6724C45.2051 36.2876 45.5347 36.8076 45.9448 37.2324C46.355 37.6426 46.8311 37.9502 47.373 38.1553C47.9297 38.3604 48.5229 38.4629 49.1528 38.4629C49.7681 38.4629 50.3467 38.3237 50.8887 38.0454C51.4453 37.7524 51.9287 37.3716 52.3389 36.9028C52.749 36.4341 53.0713 35.9067 53.3057 35.3208C53.54 34.7202 53.6572 34.105 53.6572 33.4751V20.4673H59.6997V41.0337C59.6851 42.689 59.3628 44.2417 58.7329 45.6919C58.103 47.1421 57.2388 48.4092 56.1401 49.4932C55.0562 50.5771 53.7891 51.4341 52.3389 52.064C50.8887 52.6938 49.3359 53.0088 47.6807 53.0088L44.6045 52.9648ZM83.8477 44H77.5415V12.4912H99.6021V18.7974H83.8477V25.1035H93.2959V31.4097H83.8477V44ZM134.319 44H128.276V11.1069H134.319V44ZM145.986 14.0732C145.986 14.6299 145.876 15.1499 145.657 15.6333C145.452 16.1167 145.166 16.5415 144.8 16.9077C144.434 17.2593 144.001 17.5449 143.503 17.7646C143.02 17.9697 142.5 18.0723 141.943 18.0723C141.387 18.0723 140.859 17.9697 140.361 17.7646C139.878 17.5449 139.453 17.2593 139.087 16.9077C138.735 16.5415 138.45 16.1167 138.23 15.6333C138.025 15.1499 137.922 14.6299 137.922 14.0732C137.922 13.5312 138.025 13.0186 138.23 12.5352C138.45 12.0371 138.735 11.6123 139.087 11.2607C139.453 10.8945 139.878 10.6089 140.361 10.4038C140.859 10.1841 141.387 10.0742 141.943 10.0742C142.5 10.0742 143.02 10.1841 143.503 10.4038C144.001 10.6089 144.434 10.8945 144.8 11.2607C145.166 11.6123 145.452 12.0371 145.657 12.5352C145.876 13.0186 145.986 13.5312 145.986 14.0732ZM144.954 44H138.911V20.4673H144.954V44ZM172.288 32.0249C172.288 33.7827 171.973 35.4233 171.343 36.9468C170.713 38.4556 169.856 39.7666 168.772 40.8799C167.688 41.9785 166.414 42.8501 164.949 43.4946C163.499 44.1245 161.938 44.4395 160.269 44.4395C158.613 44.4395 157.053 44.1245 155.588 43.4946C154.138 42.8501 152.864 41.9785 151.765 40.8799C150.681 39.7666 149.824 38.4556 149.194 36.9468C148.564 35.4233 148.25 33.7827 148.25 32.0249C148.25 30.2378 148.564 28.5825 149.194 27.0591C149.824 25.5356 150.681 24.2246 151.765 23.126C152.864 22.0127 154.138 21.1411 155.588 20.5112C157.053 19.8813 158.613 19.5664 160.269 19.5664C161.938 19.5664 163.499 19.8667 164.949 20.4673C166.414 21.0532 167.688 21.8955 168.772 22.9941C169.856 24.0781 170.713 25.3892 171.343 26.9272C171.973 28.4507 172.288 30.1499 172.288 32.0249ZM166.245 32.0249C166.245 31.0581 166.084 30.1865 165.762 29.4102C165.454 28.6191 165.029 27.9453 164.487 27.3887C163.945 26.8174 163.308 26.3853 162.576 26.0923C161.858 25.7847 161.089 25.6309 160.269 25.6309C159.448 25.6309 158.672 25.7847 157.939 26.0923C157.222 26.3853 156.592 26.8174 156.05 27.3887C155.522 27.9453 155.105 28.6191 154.797 29.4102C154.49 30.1865 154.336 31.0581 154.336 32.0249C154.336 32.9331 154.49 33.7754 154.797 34.5518C155.105 35.3281 155.522 36.002 156.05 36.5732C156.592 37.1445 157.222 37.5986 157.939 37.9355C158.672 38.2578 159.448 38.4189 160.269 38.4189C161.089 38.4189 161.858 38.2651 162.576 37.9575C163.308 37.6499 163.945 37.2178 164.487 36.6611C165.029 36.1045 165.454 35.4307 165.762 34.6396C166.084 33.8486 166.245 32.9771 166.245 32.0249Z" fill="white"/>
<path d="M124.958 32.0249C124.958 33.7827 124.644 35.4233 124.014 36.9468C123.384 38.4556 122.527 39.7666 121.443 40.8799C120.359 41.9785 119.084 42.8501 117.62 43.4946C116.169 44.1245 114.609 44.4395 112.939 44.4395C111.284 44.4395 109.724 44.1245 108.259 43.4946C106.809 42.8501 105.535 41.9785 104.436 40.8799C103.352 39.7666 102.495 38.4556 101.865 36.9468C101.235 35.4233 100.92 33.7827 100.92 32.0249C100.92 30.2378 101.235 28.5825 101.865 27.0591C102.495 25.5356 103.352 24.2246 104.436 23.126C105.535 22.0127 106.809 21.1411 108.259 20.5112C109.724 19.8813 111.284 19.5664 112.939 19.5664C114.609 19.5664 116.169 19.8667 117.62 20.4673C119.084 21.0532 120.359 21.8955 121.443 22.9941C122.527 24.0781 123.384 25.3892 124.014 26.9272C124.644 28.4507 124.958 30.1499 124.958 32.0249ZM118.916 32.0249C118.916 31.0581 118.755 30.1865 118.433 29.4102C118.125 28.6191 117.7 27.9453 117.158 27.3887C116.616 26.8174 115.979 26.3853 115.247 26.0923C114.529 25.7847 113.76 25.6309 112.939 25.6309C112.119 25.6309 111.343 25.7847 110.61 26.0923C109.893 26.3853 109.263 26.8174 108.721 27.3887C108.193 27.9453 107.776 28.6191 107.468 29.4102C107.161 30.1865 107.007 31.0581 107.007 32.0249C107.007 32.9331 107.161 33.7754 107.468 34.5518C107.776 35.3281 108.193 36.002 108.721 36.5732C109.263 37.1445 109.893 37.5986 110.61 37.9355C111.343 38.2578 112.119 38.4189 112.939 38.4189C113.76 38.4189 114.529 38.2651 115.247 37.9575C115.979 37.6499 116.616 37.2178 117.158 36.6611C117.7 36.1045 118.125 35.4307 118.433 34.6396C118.755 33.8486 118.916 32.9771 118.916 32.0249ZM182.988 41.7588C182.988 42.2861 182.893 42.7842 182.703 43.2529C182.512 43.707 182.249 44.1025 181.912 44.4395C181.575 44.7764 181.179 45.04 180.725 45.2305C180.271 45.4355 179.78 45.5381 179.253 45.5381C178.74 45.5381 178.25 45.4355 177.781 45.2305C177.327 45.04 176.924 44.7764 176.572 44.4395C176.235 44.1025 175.964 43.707 175.759 43.2529C175.569 42.7842 175.474 42.2861 175.474 41.7588C175.474 41.2461 175.569 40.7627 175.759 40.3086C175.964 39.8545 176.235 39.459 176.572 39.1221C176.924 38.7852 177.327 38.5215 177.781 38.3311C178.25 38.126 178.74 38.0234 179.253 38.0234C179.78 38.0234 180.271 38.126 180.725 38.3311C181.179 38.5215 181.575 38.7852 181.912 39.1221C182.249 39.459 182.512 39.8545 182.703 40.3086C182.893 40.7627 182.988 41.2461 182.988 41.7588Z" fill="#A6A001"/>
</svg>
