<svg width="100" height="100" viewBox="0 0 100 100" fill="none" xmlns="http://www.w3.org/2000/svg">
<g clip-path="url(#clip0_1_164)">
<path d="M80.1704 55.3423C83.1209 55.3423 85.5127 52.9505 85.5127 50C85.5127 47.0495 83.1209 44.6577 80.1704 44.6577C77.22 44.6577 74.8281 47.0495 74.8281 50C74.8281 52.9505 77.22 55.3423 80.1704 55.3423Z" stroke="white" stroke-width="2.93974" stroke-miterlimit="10" stroke-linecap="round" stroke-linejoin="round"/>
<path d="M19.8267 55.3423C22.7771 55.3423 25.169 52.9505 25.169 50C25.169 47.0495 22.7771 44.6577 19.8267 44.6577C16.8762 44.6577 14.4844 47.0495 14.4844 50C14.4844 52.9505 16.8762 55.3423 19.8267 55.3423Z" stroke="white" stroke-width="2.93974" stroke-miterlimit="10" stroke-linecap="round" stroke-linejoin="round"/>
<path d="M12.2606 37.9904L19.0738 31.1775M19.423 69.1719L2.3298 52.0786C1.18173 50.9306 1.18173 49.0693 2.3298 47.9213L7.22506 43.026M69.3886 80.3582L52.0777 97.6691C50.9296 98.8172 49.0684 98.8172 47.9203 97.6691L30.6052 80.3541M89.4098 60.337L80.5749 69.1719M80.2906 30.5437L97.6681 47.9213C98.8162 49.0693 98.8162 50.9306 97.6681 52.0786L94.0097 55.7371M30.3689 19.8822L47.9203 2.33078C49.0684 1.18271 50.9296 1.18271 52.0777 2.33078L69.341 19.5941M80.1167 55.8766V77.178C80.1167 78.8015 78.8005 80.1177 77.177 80.1177H22.821C21.1975 80.1177 19.8812 78.8015 19.8812 77.178V55.7372M19.8812 44.3767V22.8219C19.8812 21.1984 21.1975 19.8822 22.821 19.8822H77.177C78.8005 19.8822 80.1167 21.1984 80.1167 22.8219V44.1676" stroke="white" stroke-width="2.93974" stroke-miterlimit="10" stroke-linecap="round" stroke-linejoin="round"/>
<path d="M50.0004 71.958V28.042M47.9216 65.5611L34.4392 52.0787C33.2911 50.9306 33.2911 49.0694 34.4392 47.9213L47.9216 34.4389C49.0697 33.2908 50.9309 33.2908 52.079 34.4389L65.5614 47.9213C66.7095 49.0694 66.7095 50.9306 65.5614 52.0787L52.079 65.5611C50.9309 66.7092 49.0697 66.7092 47.9216 65.5611Z" stroke="white" stroke-width="2.93974" stroke-miterlimit="10" stroke-linecap="round" stroke-linejoin="round"/>
</g>
<defs>
<clipPath id="clip0_1_164">
<rect width="100" height="100" rx="20" fill="white"/>
</clipPath>
</defs>
</svg>
